<?xml version="1.0" encoding="UTF-8"?>
<svg width="275px" height="42px" viewBox="0 0 275 42" version="1.1" xmlns="http://www.w3.org/2000/svg" xmlns:xlink="http://www.w3.org/1999/xlink">
    <!-- Generator: Sketch 52.2 (67145) - http://www.bohemiancoding.com/sketch -->
    <title>Group</title>
    <desc>Created with Sketch.</desc>
    <g id="Page-1" stroke="none" stroke-width="1" fill="none" fill-rule="evenodd">
        <g id="Group" fill-rule="nonzero">
            <path d="M257.345229,40.8514268 C249.804727,39.8026865 244,33.3292266 244,25.5 C244,16.9395864 250.939586,10 259.5,10 C268.060414,10 275,16.9395864 275,25.5 C275,27.9531143 274.430125,30.2731271 273.415539,32.3348745 C271.0293,29.7728551 268.982644,29.5364495 268.982644,22.392252 C267.384191,19.0755858 264.037482,17.6722068 260.839341,18.9722872 C257.736287,21.2325094 256.258811,23.1816012 249.531234,24.6323083 C257.261961,24.6323083 257.569013,26.1843226 259.443703,27.8466908 C260.049551,28.383923 260.049551,29.1318481 259.92982,29.7795405 C254.434104,34.6690023 256.354125,37.5719161 257.345229,40.8514268 Z" id="Combined-Shape" fill="#84B240"></path>
            <path d="M0,11 L0,40.7253478 L7.47868935,40.7253478 L7.47868935,23.398355 C8.56291236,19.9648163 10.3955335,18.4728002 12.9765528,18.9223066 C12.9765528,18.9223066 14.133613,18.9223066 16.4477333,18.9223066 L16.4477333,11 C14.133613,11 12.9765528,11 12.9765528,11 C9.80809539,11.8516484 7.97547423,13.6842695 7.47868935,16.4978635 L7.47868935,11" id="Path" fill="#84B240"></path>
            <path d="M103,11 L103,40.7253478 L110.478689,40.7253478 L110.478689,23.398355 C111.562912,19.9648163 113.395534,18.4728002 115.976553,18.9223066 C115.976553,18.9223066 117.133613,18.9223066 119.447733,18.9223066 L119.447733,11 C117.133613,11 115.976553,11 115.976553,11 C112.808095,11.8516484 110.975474,13.6842695 110.478689,16.4978635 L110.478689,11" id="Path-Copy" fill="#FBF7DE"></path>
            <path d="M225,10 L225,39.7253478 L232.478689,39.7253478 L232.478689,22.398355 C233.562912,18.9648163 235.395534,17.4728002 237.976553,17.9223066 C237.976553,17.9223066 239.133613,17.9223066 241.447733,17.9223066 L241.447733,10 C239.133613,10 237.976553,10 237.976553,10 C234.808095,10.8516484 232.975474,12.6842695 232.478689,15.4978635 L232.478689,10" id="Path-Copy-2" fill="#FBF7DE"></path>
            <polygon id="Path-3" fill="#FBF7DE" points="158.106669 11 158.106669 39.7253478 165.941075 39.7253478 165.941075 11"></polygon>
            <polygon id="Path-4" fill="#84B240" points="158.106669 7.373484 158.106669 0.173169085 165.941075 0.173169085 165.941075 7.373484"></polygon>
            <path d="M70,11 C70,26.6244176 70,34.4366263 70,34.4366263 C74.4063224,45.6359391 87.2825881,42 87.8848419,36.8148553 C87.8848419,36.8148553 87.8848419,38.1183528 87.8848419,40.7253478 L95.854174,40.7253478 L95.854174,11 L87.8848419,11 C87.8848419,25.0879969 87.8848419,32.1319954 87.8848419,32.1319954 C85.0689632,36.6822028 78.4550166,37.0530152 77.8596654,32.8198109 C77.8596654,32.8198109 77.8596654,25.5465406 77.8596654,11 L70,11 Z" id="Path-5" fill="#FBF7DE"></path>
            <path d="M191,11 C191,26.6244176 191,34.4366263 191,34.4366263 C195.406322,45.6359391 208.282588,42 208.884842,36.8148553 C208.884842,36.8148553 208.884842,38.1183528 208.884842,40.7253478 L216.854174,40.7253478 L216.854174,11 L208.884842,11 C208.884842,25.0879969 208.884842,32.1319954 208.884842,32.1319954 C206.068963,36.6822028 199.455017,37.0530152 198.859665,32.8198109 C198.859665,32.8198109 198.859665,25.5465406 198.859665,11 L191,11 Z" id="Path-5-Copy-2" fill="#FBF7DE"></path>
            <path d="M125,10 C125,25.6244176 125,33.4366263 125,33.4366263 C129.406322,44.6359391 142.282588,41 142.884842,35.8148553 C142.884842,35.8148553 142.884842,37.1183528 142.884842,39.7253478 L150.854174,39.7253478 L150.854174,10 L142.884842,10 C142.884842,24.0879969 142.884842,31.1319954 142.884842,31.1319954 C140.068963,35.6822028 133.455017,36.0530152 132.859665,31.8198109 C132.859665,31.8198109 132.859665,24.5465406 132.859665,10 L125,10 Z" id="Path-5-Copy" fill="#FBF7DE" transform="translate(137.927087, 25.389436) rotate(-180.000000) translate(-137.927087, -25.389436) "></path>
            <path d="M53.0874829,41.7788717 L53.0874829,17.2055569 L49.008919,17.2055569 L49.008919,11 L53.0874829,11 L53.0874829,7.373484 C53.4139171,3.84130924 55.2029447,1.7476556 58.4545658,1.09252306 C58.4545658,1.09252306 60.9576913,1.09252306 65.9639423,1.09252306 C65.9639423,5.27983035 65.9639423,7.373484 65.9639423,7.373484 C60.9904939,7.373484 60.9904939,7.373484 60.9904939,11 C60.9904939,11 62.64831,11 65.9639423,11 L65.9639423,17.2055569 L60.9904939,17.2055569 L60.9904939,41.7788717 L53.0874829,41.7788717 Z" id="Path-6" fill="#FBF7DE"></path>
            <path d="M174.100082,36.8789959 C174.100082,36.8789959 174.100082,30.2451207 174.100082,16.9773705 L170.165655,16.9773705 L170.165655,11 L174.100082,11 L174.100082,3.31233921 L181.99584,3.31233921 L181.99584,11 L187.093592,11 L187.093592,16.9773705 L181.99584,16.9773705 C181.99584,28.4156552 181.99584,34.1347976 181.99584,34.1347976 C181.99584,35.3828697 181.99584,35.3828697 183.715,35.3828697 C183.715,35.3828697 184.841197,35.3828697 187.093592,35.3828697 L187.093592,41.7788717 C183.265346,41.7788717 181.351223,41.7788717 181.351223,41.7788717 C174.88191,41.7788717 174.100082,39.12601 174.100082,36.8789959 Z" id="Path-7" fill="#FBF7DE"></path>
            <path d="M27.3273298,28.5542251 C27.3273298,33.6839346 30.2303292,35.1377004 32.7377878,35.1377004 C35.1471919,35.1377004 38.0904487,34.8009572 39.0266462,32.0638012 C39.0266462,32.0638012 46.9027528,32.0638012 46.9027528,32.0638012 C46.6306429,37.7603346 39.6217939,40.9139286 33.4024095,41 C26.3047219,41.0982264 19.9020662,37.5544341 19.9020662,28.5542251 C19.9020662,27.7955108 19.9020662,26.1937656 19.9020662,26.1937656 C19.9020662,16.1611884 24.4689915,11.4460096 32.7377878,11.4460096 C41.006584,11.4460096 46.656043,16.5019827 46.9027528,25.8685122 C46.9027528,25.8685122 46.9027528,26.7637499 46.9027528,28.5542251 C35.6537325,28.5542251 29.1285915,28.5542251 27.3273298,28.5542251 Z M33.2264541,17.0136241 C30.0728788,17.0136241 28.1125749,19.1833866 27.3455424,23.5229114 L39.1073658,23.5229114 C38.3403333,19.1833866 36.3800294,17.0136241 33.2264541,17.0136241 Z" id="Combined-Shape" fill="#84B240"></path>
        </g>
    </g>
</svg>